<?xml version="1.0" encoding="utf-8"?>
<!-- Generator: Adobe Illustrator 20.1.0, SVG Export Plug-In . SVG Version: 6.00 Build 0)  -->
<svg version="1.1" id="Layer_1" xmlns="http://www.w3.org/2000/svg" xmlns:xlink="http://www.w3.org/1999/xlink" x="0px" y="0px"
	 viewBox="0 0 600 600" style="enable-background:new 0 0 600 600;" xml:space="preserve">
<path d="M33.4,326c12,7.3,23.3,14.8,35.2,21.4c35.8,19.6,73.9,32.6,114.7,36.5c43.4,4.2,84.9-2.4,123.5-23.8c1.8-1,3.6-2.2,6.2-3.8
	c-90.1-69.4-161.3-155.5-229.2-244.8c61.7,52,125.4,101.1,193.9,144c-47-51.8-90.2-106.5-129.9-164
	c71.6,68.3,147.3,131.3,231.6,184.9c1.4-3.6,2.7-6.4,3.7-9.3c9.1-27.4,11.9-55.4,9.4-84.1c-2.7-31.4-11.5-61-24.4-89.5
	c-2.3-5.1-1.7-6.2,3.8-6.3c6.3-0.1,12.8-0.7,19,0.2c3.8,0.5,8.2,2.5,10.9,5.2c40.2,40.9,69.6,88.2,83.3,144.4
	c8.8,36.2,9.3,72.4-0.8,108.5c-0.9,3.1-0.5,5.3,1.5,7.8c19.7,25.3,33.1,53.5,37.4,85.4c1.5,11.3,0.7,22.9,0.4,34.3
	c-0.1,2.8-1.8,5.7-2.8,8.5c-0.5,0-1,0-1.5,0c-1.4-2.3-2.9-4.7-4.3-7c-11.3-19.1-27-32-49.5-35c-16.7-2.2-32.9,0.6-48.5,6.5
	c-9.5,3.6-18.6,8.1-27.7,12.4c-33.8,15.7-69.4,21.6-106.5,19.1c-73.1-5-135.6-34.7-190.2-82.4c-20.8-18.2-38.8-38.9-54.5-61.6
	C36.5,330.9,35.1,328.5,33.4,326z"/>
</svg>
